<svg xmlns="http://www.w3.org/2000/svg" viewBox="37.4 13.88 425.53 461.48"><path d="M 108.271 227.252 L 103.97 222.097 L 131.658 208.748 L 133.194 197.789 L 147.533 185.874 L 167.027 169.658 L 189.457 161.669 L 204.172 145.554 L 220.798 131.728 L 230.05 134.698 L 248.691 93.012 L 269.312 75.84 L 282.626 60.374 L 297.375 52.454 L 333.188 13.875 L 299.492 40.948 L 279.998 51.327 L 270.916 63.72 L 259.923 68.022 L 234.147 89.496 C 234.147 89.496 217.896 116.603 217.145 119.164 C 216.394 121.724 208.917 122.134 208.917 122.134 L 183.892 143.916 L 186.077 135.483 C 186.077 135.483 161.428 160.644 157.229 160.269 C 153.029 159.893 139.271 182.972 139.271 182.972 L 100.59 212.265 L 92.362 226.877 L 84.339 227.73 L 37.43 277.439 L 62.626 256.442 L 108.271 227.252 Z" data-layer-id="6562545520390" name="Layer %{number}" zoom="1" style="fill:#de3a3a;fill-opacity:1"/><path d="M 220.764 239.85 L 230.016 242.82 L 248.657 201.135 L 269.278 183.962 L 282.592 168.497 L 297.341 160.576 L 333.154 122.032 L 299.458 149.105 L 279.964 159.484 L 270.882 171.877 L 259.889 176.178 L 234.113 197.653 C 234.113 197.653 217.862 224.76 217.111 227.321 C 216.36 229.881 208.883 230.291 208.883 230.291 L 183.858 252.072 L 186.043 243.64 C 186.043 243.64 161.394 268.801 157.195 268.426 C 152.995 268.05 139.237 291.129 139.237 291.129 L 100.556 320.422 L 92.328 335.034 L 84.305 335.887 L 37.396 385.596 L 62.592 364.599 L 108.135 335.409 L 103.833 330.254 L 131.521 316.905 L 133.057 305.946 L 147.396 294.031 L 166.89 277.814 L 189.321 269.826 L 204.035 253.711 L 220.764 239.85 Z" data-layer-id="1773385220416" name="Layer %{number}" zoom="1" style="fill:#de3a3a;fill-opacity:1"/><path d="M 252.924 315.642 L 249.169 311.101 L 273.477 299.391 L 274.808 289.764 L 287.372 279.282 L 304.476 265.046 L 324.175 258.013 L 337.08 243.845 L 351.658 231.691 L 359.784 234.285 L 376.137 197.687 L 394.231 182.631 L 405.942 169.077 L 418.881 162.147 L 450.324 128.314 L 420.724 152.075 L 403.62 161.191 L 395.665 172.082 L 386.038 175.837 L 363.403 194.682 C 363.403 194.682 349.132 218.478 348.483 220.732 C 347.8 222.985 341.28 223.326 341.28 223.326 L 319.327 242.445 L 321.239 235.036 C 321.239 235.036 299.628 257.125 295.941 256.784 C 292.254 256.442 280.168 276.722 280.168 276.722 L 246.233 302.43 L 239.029 315.232 L 231.996 315.983 L 190.823 359.615 L 212.946 341.213 L 252.924 315.642 Z" data-layer-id="463586520438" name="Layer %{number}" zoom="1" style="fill:#de3a3a;fill-opacity:1"/><path d="M 433.356 267.777 L 416.252 276.893 L 408.297 287.783 L 398.67 291.539 L 376.035 310.384 C 376.035 310.384 361.764 334.18 361.115 336.433 C 360.432 338.687 353.912 339.028 353.912 339.028 L 331.959 358.147 L 333.871 350.738 C 333.871 350.738 312.26 372.827 308.573 372.486 C 304.886 372.144 292.8 392.424 292.8 392.424 L 258.865 418.131 L 251.661 430.934 L 244.628 431.685 L 203.421 475.351 L 225.544 456.949 L 265.522 431.344 L 261.767 426.803 L 286.075 415.093 L 287.406 405.465 L 299.97 394.984 L 317.074 380.748 L 336.773 373.715 L 349.678 359.546 L 364.256 347.392 L 372.382 349.987 L 388.735 313.389 L 406.829 298.333 L 418.539 284.779 L 431.479 277.848 L 462.922 244.015 L 433.356 267.777 Z" data-layer-id="7536383420460" name="Layer %{number}" zoom="1" style="fill:#de3a3a;fill-opacity:1"/></svg>