<?xml version="1.0" standalone="no"?>
<!DOCTYPE svg PUBLIC "-//W3C//DTD SVG 20010904//EN"
 "http://www.w3.org/TR/2001/REC-SVG-20010904/DTD/svg10.dtd">
<svg version="1.0" xmlns="http://www.w3.org/2000/svg"
 width="922.000000pt" height="922.000000pt" viewBox="0 0 922.000000 922.000000"
 preserveAspectRatio="xMidYMid meet">
<metadata>
Created by potrace 1.14, written by Peter Selinger 2001-2017
</metadata>
<g transform="translate(0.000000,922.000000) scale(0.100000,-0.100000)"
fill="#000000" stroke="none">
<path d="M6205 9169 c-5 -5 -50 -41 -100 -80 -49 -40 -106 -84 -125 -100 -19
-16 -64 -52 -100 -80 -36 -28 -67 -55 -70 -59 -3 -4 -12 -11 -21 -16 -9 -5
-36 -25 -60 -46 -24 -20 -64 -53 -89 -73 -24 -20 -76 -53 -115 -72 -38 -20
-71 -39 -73 -44 -2 -5 -10 -9 -17 -9 -7 0 -40 -15 -72 -32 -33 -18 -80 -44
-107 -58 -43 -23 -104 -92 -168 -190 -9 -14 -25 -35 -37 -47 -12 -12 -21 -26
-21 -30 0 -4 -51 -28 -114 -51 -62 -24 -126 -55 -142 -69 -45 -38 -64 -53
-154 -128 -46 -38 -92 -77 -101 -85 -9 -8 -32 -27 -50 -42 -19 -15 -47 -39
-64 -53 -16 -14 -48 -40 -70 -57 -37 -29 -175 -239 -175 -267 0 -6 -4 -11 -8
-11 -5 0 -20 -21 -33 -47 -13 -27 -26 -50 -30 -53 -3 -3 -8 -12 -12 -20 -4 -8
-37 -69 -75 -135 -73 -129 -86 -141 -168 -151 -27 -4 -56 -14 -65 -23 -10 -9
-36 -32 -60 -51 -23 -19 -54 -46 -69 -60 -14 -14 -39 -36 -55 -49 -17 -12 -59
-49 -95 -81 -101 -89 -195 -169 -197 -166 -1 1 2 18 7 37 5 19 11 45 14 59 2
14 8 34 12 45 4 11 -50 -37 -121 -106 -271 -264 -387 -360 -451 -373 -43 -9
-149 -123 -219 -236 -15 -25 -31 -47 -35 -50 -4 -3 -9 -10 -11 -16 -16 -43
-102 -157 -139 -185 -25 -19 -49 -37 -55 -42 -5 -4 -28 -21 -50 -38 -22 -16
-47 -35 -55 -42 -8 -7 -60 -46 -115 -87 -55 -41 -102 -77 -105 -80 -3 -3 -32
-25 -65 -49 -33 -25 -63 -49 -67 -55 -4 -6 -8 -8 -8 -3 0 4 -9 -1 -19 -10 -25
-23 -31 -28 -117 -91 -65 -49 -76 -63 -143 -182 -40 -71 -80 -138 -89 -149
-13 -14 -35 -21 -86 -25 -76 -6 -76 -7 -165 -100 -31 -33 -72 -76 -91 -96 -19
-20 -91 -97 -160 -170 -69 -73 -143 -151 -165 -175 -22 -23 -96 -102 -165
-175 -69 -73 -138 -147 -155 -164 -56 -59 -82 -92 -60 -76 11 8 27 21 36 30 9
8 25 22 35 30 52 41 191 156 209 172 41 36 74 64 105 88 18 14 44 35 59 48 14
13 35 28 46 33 11 4 114 69 228 144 115 74 211 135 214 135 3 0 15 8 28 18 34
25 296 194 362 232 15 9 28 20 30 25 1 6 -13 28 -32 50 -19 22 -35 44 -35 50
0 10 146 84 164 84 5 -1 12 3 15 8 10 13 49 33 66 33 8 0 15 5 15 10 0 6 6 10
13 10 6 0 47 18 90 39 42 22 77 37 77 34 0 -3 8 0 18 8 9 8 34 22 54 31 23 11
37 24 36 35 0 10 2 32 5 48 2 17 8 55 12 86 7 53 21 78 67 114 36 29 244 200
248 205 3 3 27 23 55 45 27 22 57 47 66 55 8 8 35 31 59 50 24 19 51 42 61 51
40 39 151 119 165 119 8 0 22 4 32 9 16 9 125 50 147 55 6 2 23 8 38 14 16 7
31 12 35 12 4 0 42 13 84 30 79 30 86 35 193 156 72 82 220 232 255 259 14 11
52 43 85 70 33 28 64 53 70 58 5 4 29 24 53 45 l43 39 87 -29 c48 -15 91 -28
95 -28 7 0 24 34 84 170 8 19 23 53 33 75 10 22 73 162 139 310 l120 270 183
153 c200 166 245 208 298 272 19 23 49 57 65 75 17 18 39 44 50 58 77 94 79
96 225 173 41 21 77 42 80 45 3 4 16 10 29 14 29 9 140 122 392 399 30 33 68
74 84 91 17 17 61 65 99 106 38 41 87 93 110 117 22 23 36 42 31 42 -6 -1 -14
-5 -20 -11z"/>
<path d="M6135 6954 c-44 -36 -103 -84 -131 -107 -28 -23 -66 -53 -84 -67 -65
-49 -205 -165 -208 -172 -2 -5 -10 -8 -18 -8 -8 0 -14 -4 -14 -8 0 -16 -98
-81 -215 -143 -287 -151 -250 -124 -350 -261 l-90 -124 -110 -43 c-100 -38
-121 -51 -230 -142 -66 -55 -129 -108 -140 -117 -11 -10 -45 -38 -75 -62 -30
-25 -60 -49 -66 -55 -6 -5 -36 -31 -66 -58 -50 -42 -138 -168 -138 -196 0 -6
-3 -11 -7 -11 -5 0 -13 -10 -19 -23 -6 -12 -42 -76 -81 -142 -39 -66 -87 -151
-108 -190 -45 -83 -64 -105 -93 -108 -12 -1 -22 -4 -22 -7 0 -3 -10 -6 -22 -7
-51 -2 -70 -12 -130 -65 -35 -30 -81 -70 -103 -89 -22 -19 -44 -39 -50 -45 -5
-5 -57 -50 -115 -99 -58 -49 -115 -100 -128 -113 -13 -14 -25 -22 -27 -20 -2
2 2 27 9 56 8 29 12 52 10 52 -3 0 0 9 6 20 19 35 0 22 -80 -57 -227 -227
-389 -364 -474 -403 -92 -42 -165 -130 -343 -412 -28 -44 -112 -113 -417 -341
-17 -12 -90 -68 -163 -124 -74 -57 -136 -103 -139 -103 -5 0 -14 -7 -57 -46
-16 -13 -62 -84 -104 -157 -41 -73 -79 -137 -86 -144 -10 -11 -63 -19 -133
-22 -20 -1 -61 -40 -205 -192 -24 -26 -100 -106 -169 -179 -69 -73 -143 -152
-165 -175 -42 -44 -265 -282 -300 -320 -11 -12 -40 -43 -65 -70 l-45 -48 50
39 c28 21 52 42 55 45 3 4 39 35 80 69 97 81 164 137 215 180 57 49 93 76 145
109 25 16 218 140 429 275 211 135 386 246 390 246 3 0 11 8 18 18 9 15 5 25
-28 62 -21 24 -39 45 -39 47 0 3 202 102 453 221 67 32 97 52 98 64 2 18 5 36
8 41 1 1 4 20 6 42 5 56 15 106 23 120 4 7 63 59 132 115 69 56 127 105 130
109 3 3 28 24 55 45 28 22 55 44 60 50 6 6 26 23 45 37 19 15 50 41 69 58 19
17 45 38 59 48 13 10 38 30 54 45 16 16 39 34 51 42 20 13 279 112 317 121 66
16 149 54 171 80 30 34 64 71 118 130 21 22 58 64 84 93 26 29 47 51 47 49 0
-3 17 12 38 32 38 37 131 116 163 138 9 7 35 28 56 47 21 18 51 45 67 58 l28
24 86 -28 c46 -15 88 -28 93 -28 7 0 69 122 69 135 0 2 16 39 36 82 57 126 73
160 95 211 11 26 27 61 34 77 39 82 107 234 110 245 16 56 48 89 236 246 211
175 221 184 279 255 19 24 49 57 65 75 26 28 57 64 115 134 16 19 34 30 160
96 41 21 77 42 80 45 3 3 19 11 35 18 17 6 64 48 105 93 41 44 102 109 136
144 33 35 60 64 58 64 -1 0 12 15 30 33 25 26 156 166 276 297 14 15 43 46 64
68 22 23 38 44 35 46 -2 2 -40 -25 -84 -60z"/>
<path d="M8495 6844 c-44 -36 -90 -74 -103 -85 -12 -10 -27 -19 -32 -19 -6 0
-10 -4 -10 -8 0 -5 -19 -23 -42 -40 -24 -17 -55 -41 -69 -54 -15 -13 -42 -35
-60 -50 -19 -14 -64 -50 -101 -80 -55 -43 -207 -132 -315 -182 -13 -6 -23 -15
-23 -19 0 -5 -4 -5 -10 -2 -13 8 -96 -76 -142 -145 -59 -89 -79 -105 -158
-136 -41 -15 -78 -28 -81 -27 -6 2 -240 -187 -313 -252 -12 -11 -45 -38 -72
-59 -81 -66 -91 -78 -179 -225 -92 -153 -215 -372 -215 -382 0 -10 -51 -30
-94 -36 -43 -6 -65 -22 -236 -172 -47 -42 -93 -82 -103 -91 -10 -8 -41 -36
-70 -62 -49 -45 -89 -65 -70 -35 8 13 8 14 18 61 3 16 8 33 11 38 17 27 -21
-4 -110 -91 -55 -55 -114 -112 -131 -126 -16 -15 -48 -44 -70 -64 -63 -59
-165 -131 -186 -131 -21 0 -99 -73 -145 -135 -29 -40 -171 -253 -176 -265 -2
-3 -84 -66 -183 -140 -99 -74 -182 -137 -185 -141 -3 -3 -41 -32 -85 -64 -44
-32 -88 -66 -97 -74 -9 -9 -42 -34 -73 -56 -42 -30 -65 -56 -91 -105 -55 -103
-98 -178 -105 -185 -7 -6 -49 -13 -107 -17 -33 -2 -74 -42 -327 -313 -35 -37
-255 -271 -335 -355 -19 -21 -62 -65 -94 -99 -32 -34 -56 -64 -53 -68 4 -3 9
2 13 11 3 9 10 16 16 16 5 0 15 6 22 13 7 6 32 28 55 47 24 19 48 40 54 45 7
6 41 35 77 64 36 30 67 57 70 60 3 4 23 20 45 36 22 17 44 36 48 42 4 7 12 13
18 13 5 0 62 34 125 75 63 41 117 75 120 75 3 0 10 5 17 10 7 6 46 32 87 59
41 26 95 61 120 77 25 16 50 31 55 34 6 3 44 27 85 54 41 26 94 60 117 75 23
14 42 29 43 33 0 7 -28 43 -58 74 -11 11 23 31 204 119 119 58 220 105 223
105 3 0 16 8 29 18 17 13 24 31 27 63 8 102 15 132 39 153 40 36 92 80 132
112 45 37 229 189 294 244 136 114 159 131 185 136 6 1 60 20 120 42 61 22
138 50 172 62 55 20 72 33 140 108 112 123 114 126 154 168 19 22 53 53 74 69
21 17 43 35 49 40 6 6 53 45 104 87 l93 77 42 -15 c23 -9 49 -17 57 -19 8 -2
25 -7 37 -11 20 -5 26 2 56 67 56 120 80 173 83 184 4 15 213 477 216 479 6 4
234 192 251 208 11 9 40 33 65 54 26 20 62 56 81 78 93 114 221 254 221 243 0
-3 26 9 58 26 31 18 79 43 106 57 57 29 131 101 362 355 46 51 216 234 266
286 26 27 44 49 40 48 -4 0 -43 -29 -87 -65z"/>
<path d="M8790 4568 c-21 -20 -52 -45 -140 -115 -8 -7 -98 -79 -200 -160 -160
-128 -208 -161 -353 -238 l-168 -89 -67 -91 c-37 -49 -70 -91 -74 -93 -5 -2
-8 -10 -8 -17 0 -7 -43 -29 -97 -50 -97 -37 -124 -53 -193 -114 -19 -17 -40
-34 -45 -38 -6 -4 -37 -30 -70 -58 -33 -27 -66 -54 -73 -60 -7 -5 -28 -23 -46
-40 -19 -16 -51 -43 -72 -60 -20 -16 -43 -34 -49 -40 -7 -5 -36 -50 -65 -100
-29 -49 -56 -91 -61 -93 -5 -2 -9 -12 -9 -22 0 -9 -7 -23 -15 -30 -8 -7 -15
-16 -15 -21 0 -5 -24 -48 -53 -96 -29 -48 -62 -108 -74 -133 -23 -47 -49 -69
-89 -76 -13 -2 -36 -6 -50 -8 -14 -3 -56 -31 -92 -63 -105 -91 -134 -117 -152
-133 -9 -8 -45 -40 -81 -70 -35 -30 -77 -67 -92 -83 -16 -16 -31 -26 -33 -24
-3 3 2 31 10 63 8 32 14 59 12 61 -1 2 -55 -48 -118 -110 -64 -61 -142 -134
-173 -162 -32 -27 -63 -54 -69 -60 -46 -40 -97 -74 -129 -84 -45 -15 -100 -68
-164 -160 -26 -36 -50 -68 -53 -71 -4 -3 -9 -12 -13 -20 -4 -8 -28 -47 -54
-87 -44 -66 -67 -87 -288 -253 -132 -100 -247 -186 -255 -193 -8 -7 -40 -30
-70 -52 -103 -75 -122 -99 -205 -258 -33 -64 -60 -87 -102 -88 -74 -1 -84 -6
-135 -60 -76 -81 -295 -314 -358 -380 -30 -32 -109 -115 -175 -185 -66 -70
-137 -145 -157 -166 -69 -69 -45 -58 57 27 22 18 85 71 140 116 55 46 107 90
115 98 16 15 219 151 226 151 8 0 69 44 72 53 2 4 8 7 13 7 6 0 43 23 84 50
41 28 79 50 85 50 5 0 10 5 10 10 0 6 4 10 9 10 5 0 38 19 74 43 35 23 109 71
165 107 56 36 102 68 102 72 0 7 -28 43 -57 73 -10 11 0 19 50 43 349 169 416
202 420 209 3 5 8 26 11 48 20 129 25 148 40 157 9 5 24 17 34 27 9 9 71 62
137 117 66 54 129 107 140 117 11 10 41 35 68 55 26 20 47 40 47 44 0 4 4 8
10 8 5 0 22 11 37 25 83 74 105 87 213 126 63 22 120 42 125 43 6 2 23 8 38
14 16 7 30 12 32 12 2 0 16 5 32 12 30 12 38 15 51 17 5 0 15 12 22 26 7 14
19 25 27 25 7 0 13 4 13 8 0 8 86 105 175 198 28 28 82 77 120 109 39 32 92
76 119 99 81 68 72 65 148 39 86 -29 95 -29 104 0 6 20 43 104 82 187 9 19 17
37 18 40 1 9 44 103 64 142 10 20 17 38 14 41 -2 2 2 10 11 17 8 7 15 19 15
27 0 8 6 27 14 41 16 31 49 105 73 163 12 30 44 64 137 141 107 89 174 145
243 205 12 10 50 52 84 93 35 41 74 86 86 100 12 14 31 36 43 50 20 24 86 63
217 130 46 24 85 58 155 132 51 56 119 129 150 162 31 34 74 79 95 102 21 23
83 90 138 149 89 96 122 135 113 135 -2 0 -14 -10 -28 -22z"/>
</g>
</svg>
