<svg xmlns="http://www.w3.org/2000/svg" xmlns:xlink="http://www.w3.org/1999/xlink" width="118" height="138" version="1.1" viewBox="0 0 118 138"><title>logo / glitch / purple</title><desc>Created with Sketch.</desc><g id="logo-/-glitch-/-purple" fill="none" fill-rule="evenodd" stroke="none" stroke-width="1"><g id="logo-/-glitch" transform="translate(0.000000, 0.000000)"><polygon id="Fill-1" fill="#FFF" points="107.806 63.704 88.204 83.305 68.604 83.305 51.452 100.456 51.452 83.305 29.402 83.305 29.402 9.801 107.806 9.801"/><path id="Combined-Shape" fill="#9146FF" d="M117.605,0 L117.605,68.605 L73.503,112.704 L53.904,112.704 L29.401,137.207 L29.401,112.704 L8.52651283e-14,112.704 L8.52651283e-14,24.502 L24.5,0 L117.605,0 Z M107.805,9.801 L29.401,9.801 L29.401,83.304 L51.452,83.304 L51.452,100.454 L68.605,83.304 L88.206,83.304 L107.805,63.703 L107.805,9.801 Z M93.1042,26.9518 L93.1042,56.3518 L83.3042,56.3518 L83.3042,26.9518 L93.1042,26.9518 Z M66.1532,26.9518 L66.1532,56.3518 L56.3532,56.3518 L56.3532,26.9518 L66.1532,26.9518 Z"/></g></g></svg>